<?xml version="1.0" encoding="utf-8"?>
<!-- Generator: Adobe Illustrator 16.0.4, SVG Export Plug-In . SVG Version: 6.00 Build 0)  -->
<!DOCTYPE svg PUBLIC "-//W3C//DTD SVG 1.1//EN" "http://www.w3.org/Graphics/SVG/1.1/DTD/svg11.dtd">
<svg version="1.1" id="Layer_1" xmlns="http://www.w3.org/2000/svg" xmlns:xlink="http://www.w3.org/1999/xlink" x="0px" y="0px"
	 width="325.871px" height="107.91px" viewBox="0 0 325.871 107.91" style="enable-background:new 0 0 325.871 107.91;"
	 xml:space="preserve">
<style type="text/css">
<![CDATA[
	.st0{fill:#12818A;}
	.st1{fill:#4D4D4D;}
	.st2{fill:#B3B3B3;stroke:#B3B3B3;stroke-miterlimit:10;}
	.st3{fill:#587291;}
	.st4{fill:#22F580;}
	.st5{fill:#0981D1;}
]]>
</style>
<path class="st3" d="M33.072,60.786c2.866,3.633,4.299,8.32,4.299,14.062c0,5.954-1.414,10.887-4.241,14.801
	c-2.827,3.915-6.773,5.871-11.838,5.871c-3.18,0-5.736-0.633-7.668-1.898c-1.154-0.75-2.403-2.062-3.746-3.938V94.5H0V42.75h10.02
	v18.422c1.273-1.781,2.677-3.141,4.21-4.078c1.816-1.172,4.128-1.758,6.935-1.758C26.236,55.336,30.205,57.153,33.072,60.786z
	 M24.697,84.129c1.441-2.086,2.163-4.828,2.163-8.227c0-2.719-0.355-4.969-1.063-6.75c-1.347-3.375-3.828-5.062-7.444-5.062
	c-3.663,0-6.18,1.652-7.55,4.957c-0.709,1.758-1.063,4.031-1.063,6.82c0,3.282,0.732,6,2.198,8.156
	c1.465,2.157,3.698,3.234,6.7,3.234C21.235,87.258,23.255,86.216,24.697,84.129z"/>
<path class="st0" d="M52.633,51.61h-10.16v-9.246h10.16V51.61z M42.473,56.18h10.16V94.5h-10.16V56.18z"/>
<path class="st5" d="M59.156,64.336V56.18h30.305v8.332L70.658,86.274h19.471V94.5H57.82v-7.805l18.995-22.359H59.156z"/>
<path class="st4" d="M124.257,69.926c-0.188-1.429-0.67-2.719-1.443-3.867c-1.129-1.547-2.879-2.32-5.252-2.32
	c-3.383,0-5.698,1.676-6.943,5.027c-0.658,1.777-0.986,4.138-0.986,7.083c0,2.806,0.328,5.062,0.986,6.768
	c1.198,3.188,3.454,4.781,6.767,4.781c2.35,0,4.018-0.633,5.004-1.898s1.586-2.906,1.797-4.922h10.23
	c-0.234,3.047-1.338,5.93-3.307,8.648c-3.145,4.383-7.801,6.574-13.971,6.574c-6.171,0-10.71-1.828-13.621-5.484
	c-2.908-3.656-4.363-8.397-4.363-14.222c0-6.573,1.606-11.688,4.82-15.345c3.215-3.656,7.648-5.484,13.304-5.484
	c4.809,0,8.744,1.078,11.805,3.234c3.062,2.157,4.875,5.965,5.438,11.426H124.257z"/>
<path class="st4" d="M156.556,71.192c1.865-0.234,3.199-0.527,4.002-0.879c1.441-0.609,2.16-1.559,2.16-2.848
	c0-1.57-0.553-2.654-1.656-3.252c-1.105-0.598-2.727-0.896-4.865-0.896c-2.398,0-4.098,0.586-5.096,1.758
	c-0.713,0.867-1.188,2.039-1.426,3.516h-9.668c0.213-3.352,1.154-6.105,2.824-8.262c2.66-3.375,7.227-5.062,13.701-5.062
	c4.213,0,7.955,0.832,11.229,2.496c3.271,1.665,4.906,4.805,4.906,9.422v17.578c0,1.219,0.023,2.695,0.07,4.43
	c0.07,1.313,0.27,2.203,0.598,2.672c0.328,0.469,0.82,0.856,1.477,1.16V94.5h-10.898c-0.305-0.773-0.516-1.5-0.633-2.18
	c-0.117-0.68-0.211-1.453-0.281-2.32c-1.391,1.5-2.994,2.777-4.809,3.832c-2.168,1.242-4.621,1.863-7.355,1.863
	c-3.49,0-6.371-0.99-8.646-2.971s-3.412-4.787-3.412-8.42c0-4.711,1.83-8.121,5.49-10.23c2.006-1.148,4.959-1.969,8.854-2.461
	L156.556,71.192z M162.683,75.868c-0.643,0.399-1.289,0.721-1.943,0.967c-0.652,0.246-1.549,0.475-2.689,0.686l-2.281,0.422
	c-2.137,0.375-3.674,0.832-4.605,1.371c-1.578,0.914-2.367,2.333-2.367,4.254c0,1.711,0.482,2.948,1.445,3.709
	c0.965,0.762,2.137,1.143,3.518,1.143c2.189,0,4.205-0.633,6.051-1.898c1.844-1.266,2.801-3.574,2.873-6.926V75.868z"/>
<path class="st4" d="M202.708,55.284c0.129,0.012,0.416,0.03,0.861,0.053v10.266c-0.633-0.07-1.195-0.117-1.688-0.141
	c-0.492-0.023-0.891-0.035-1.195-0.035c-4.031,0-6.738,1.313-8.121,3.938c-0.773,1.477-1.16,3.75-1.16,6.82V94.5h-10.09V56.18h9.562
	v6.68c1.547-2.554,2.895-4.301,4.043-5.238c1.875-1.57,4.312-2.355,7.312-2.355C202.421,55.266,202.58,55.272,202.708,55.284z"/>
<path class="st4" d="M229.761,56.795c1.805,1.02,3.27,2.432,4.395,4.236V42.75h10.16V94.5h-9.738v-5.309
	c-1.43,2.273-3.059,3.926-4.887,4.957s-4.102,1.547-6.82,1.547c-4.477,0-8.244-1.811-11.303-5.432s-4.588-8.267-4.588-13.939
	c0-6.539,1.506-11.684,4.518-15.434c3.012-3.75,7.037-5.625,12.076-5.625C225.894,55.266,227.957,55.776,229.761,56.795z
	 M232.222,84.094c1.477-2.109,2.215-4.839,2.215-8.191c0-4.688-1.184-8.039-3.551-10.055c-1.453-1.218-3.141-1.828-5.062-1.828
	c-2.93,0-5.08,1.107-6.451,3.322s-2.057,4.963-2.057,8.244c0,3.539,0.697,6.369,2.092,8.49c1.395,2.122,3.51,3.182,6.346,3.182
	S230.746,86.204,232.222,84.094z"/>
<g>
	<path class="st1" d="M253.147,2.76c0.793,1.102,1.189,2.42,1.189,3.955c0,1.582-0.4,2.854-1.2,3.814
		c-0.447,0.539-1.105,1.031-1.976,1.477c1.322,0.48,2.319,1.242,2.992,2.285s1.01,2.309,1.01,3.797c0,1.535-0.385,2.912-1.153,4.131
		c-0.489,0.809-1.102,1.488-1.835,2.039c-0.827,0.633-1.804,1.066-2.928,1.301c-1.125,0.234-2.345,0.352-3.661,0.352h-11.675V0
		h12.521C249.591,0.047,251.83,0.967,253.147,2.76z M239.079,4.5v5.713h6.297c1.125,0,2.039-0.214,2.74-0.642
		c0.702-0.428,1.053-1.187,1.053-2.276c0-1.207-0.464-2.004-1.392-2.391c-0.801-0.27-1.821-0.404-3.062-0.404H239.079z
		 M239.079,14.502v6.908h6.29c1.124,0,1.999-0.152,2.624-0.457c1.136-0.562,1.703-1.641,1.703-3.234c0-1.348-0.551-2.273-1.65-2.777
		c-0.614-0.281-1.478-0.428-2.59-0.439H239.079z"/>
	<path class="st1" d="M278.981,4.588H265.27v5.502h12.586v4.5H265.27v6.662h14.344v4.658h-19.635V0h19.002V4.588z"/>
	<path class="st1" d="M302.659,0v4.588h-7.752V25.91h-5.449V4.588h-7.787V0H302.659z"/>
	<path class="st1" d="M310.578,0h6.126l9.167,25.91H320l-1.71-5.326h-9.541l-1.757,5.326h-5.663L310.578,0z M310.221,16.119h6.636
		l-3.273-10.195L310.221,16.119z"/>
</g>
<g>
	<path class="st2" d="M252.08,95.39c0,6.639-5.382,12.02-12.021,12.02H105.1c-6.639,0-12.021-5.381-12.021-12.02V46.43
		c0-6.639,5.382-12.02,12.021-12.02h134.959c6.639,0,12.021,5.381,12.021,12.02V95.39z M251.08,46.43
		c0-6.086-4.934-11.02-11.021-11.02H105.1c-6.086,0-11.021,4.934-11.021,11.02v48.96c0,6.086,4.934,11.02,11.021,11.02h134.959
		c6.087,0,11.021-4.934,11.021-11.02V46.43z"/>
</g>
</svg>
